<?xml version="1.0" encoding="UTF-8" standalone="no"?>
<!DOCTYPE svg PUBLIC "-//W3C//DTD SVG 1.1//EN" "http://www.w3.org/Graphics/SVG/1.1/DTD/svg11.dtd">
<svg width="98px" height="5px" version="1.1" xmlns="http://www.w3.org/2000/svg" xmlns:xlink="http://www.w3.org/1999/xlink" xml:space="preserve" xmlns:serif="http://www.serif.com/" style="fill-rule:evenodd;clip-rule:evenodd;stroke-linejoin:round;stroke-miterlimit:2;">
    <g transform="matrix(1,0,0,1,-59,-1204)">
        <g transform="matrix(1,0,0,1,-0.440752,-0.459039)">
            <rect id="Artboard2" x="59.441" y="1204.46" width="97.897" height="4.934" style="fill:none;"/>
            <clipPath id="_clip1">
                <rect id="Artboard21" serif:id="Artboard2" x="59.441" y="1204.46" width="97.897" height="4.934"/>
            </clipPath>
            <g clip-path="url(#_clip1)">
                <g transform="matrix(1,0,0,1,-958.815,628.864)">
                    <g transform="matrix(1,0,0,1,-3.85253,-4.81744)">
                        <path d="M1023.88,585.416C1023.7,585.416 1023.56,585.271 1023.56,585.092C1023.56,584.913 1023.7,584.768 1023.88,584.768C1025.32,584.741 1026.75,584.681 1028.18,584.607C1031.05,584.46 1033.91,584.231 1036.77,584.027C1039.64,583.822 1042.52,583.649 1045.4,583.539C1048.76,583.417 1052.12,583.381 1055.49,583.4C1063.31,583.442 1071.15,583.752 1078.96,583.744C1084.4,583.754 1089.84,583.662 1095.28,583.565C1100.73,583.467 1106.18,583.304 1111.62,583.313C1114.35,583.317 1117.07,583.396 1119.8,583.469C1119.98,583.469 1120.12,583.614 1120.12,583.792C1120.12,583.971 1119.98,584.116 1119.8,584.116C1117.35,584.184 1114.9,584.298 1112.45,584.37C1106.74,584.537 1101.03,584.653 1095.31,584.794C1089.86,584.927 1084.41,585.024 1078.96,585.035C1071.15,585.026 1063.31,584.719 1055.48,584.641C1052.13,584.607 1048.78,584.611 1045.44,584.709C1042.42,584.792 1039.42,584.975 1036.41,585.128C1034.39,585.23 1032.38,585.316 1030.37,585.374C1028.21,585.436 1026.05,585.457 1023.88,585.416Z"/>
                    </g>
                    <g transform="matrix(-0.999711,0.0240203,0.0240203,0.999711,2124.81,-31.4982)">
                        <path d="M1023.88,584.765C1023.7,584.765 1023.55,584.911 1023.55,585.092C1023.55,585.273 1023.7,585.419 1023.88,585.419C1026.05,585.44 1028.2,585.395 1030.37,585.316C1035.39,585.132 1040.41,584.765 1045.44,584.644C1048.78,584.557 1052.13,584.564 1055.48,584.609C1059.39,584.661 1063.3,584.776 1067.21,584.868C1071.13,584.961 1075.05,585.028 1078.96,585.027C1081.69,585.014 1084.41,584.982 1087.14,584.926C1098.03,584.702 1108.92,584.21 1119.8,584.119C1119.98,584.119 1120.12,583.973 1120.12,583.792C1120.12,583.612 1119.98,583.465 1119.8,583.465C1117.07,583.439 1114.35,583.435 1111.62,583.449C1106.18,583.476 1100.73,583.56 1095.28,583.636C1089.84,583.711 1084.4,583.783 1078.96,583.752C1075.06,583.75 1071.15,583.662 1067.24,583.586C1063.32,583.509 1059.4,583.439 1055.49,583.431C1052.12,583.425 1048.76,583.472 1045.4,583.605C1040.37,583.814 1035.36,584.263 1030.33,584.539C1028.18,584.657 1026.03,584.744 1023.88,584.765Z"/>
                    </g>
                </g>
            </g>
        </g>
    </g>
</svg>
